<svg width="256" height="256" viewBox="0 0 256 256" fill="none" xmlns="http://www.w3.org/2000/svg">
  <!-- Light theme: dark bg, light K -->
  <path fill="#232323" d="M 256.0000 128.0000 L 255.8420 174.2453 L 255.3673 188.9457 L 254.5734 199.5293 L 253.4563 208.0208 L 252.0098 215.1657 L 250.2256 221.3316 L 248.0926 226.7288 L 245.5961 231.4898 L 242.7171 235.7030 L 239.4305 239.4305 L 235.7030 242.7171 L 231.4898 245.5961 L 226.7288 248.0926 L 221.3316 250.2256 L 215.1657 252.0098 L 208.0208 253.4563 L 199.5293 254.5734 L 188.9457 255.3673 L 174.2453 255.8420 L 128.0000 256.0000 L 81.7547 255.8420 L 67.0543 255.3673 L 56.4707 254.5734 L 47.9792 253.8767 L 40.8343 252.0098 L 34.6684 250.2256 L 29.2712 248.0926 L 24.5102 245.5961 L 20.2970 242.7171 L 16.5695 239.4305 L 13.2829 235.7030 L 10.4039 231.4898 L 7.9074 226.7288 L 5.7744 221.3316 L 3.9902 215.1657 L 2.5437 208.0208 L 1.4266 199.5293 L 0.6327 188.9457 L 0.1580 174.2453 L 0.0000 128.0001 L 0.1580 81.7547 L 0.6327 67.0543 L 1.4266 56.4707 L 2.5437 47.9792 L 3.9902 40.8343 L 5.7744 34.6684 L 7.9074 29.2712 L 10.4039 24.5102 L 13.2829 20.2970 L 16.5695 16.5695 L 20.2970 13.2829 L 24.5102 10.4039 L 29.2712 7.9074 L 34.6684 5.7744 L 40.8343 3.9902 L 47.9792 2.5437 L 56.4707 1.4266 L 67.0543 0.6327 L 81.7547 0.1580 L 127.9999 0.0000 L 174.2453 0.1580 L 188.9457 0.6327 L 199.5293 1.4266 L 208.0208 2.5437 L 215.1657 3.9902 L 221.3316 5.7744 L 226.7288 7.9074 L 231.4898 10.4039 L 235.7030 13.2829 L 239.4305 16.5695 L 242.7171 20.2970 L 245.5961 24.5102 L 248.0926 29.2712 L 250.2256 34.6684 L 252.0098 40.8343 L 253.4563 47.9792 L 254.5734 56.4707 L 255.3673 67.0543 L 255.8420 81.7547 L 256.0000 127.9999 Z"/>
  <path fill="#D9D9D9" d="M195.92 38V42.8477C187.28 47.72 186.92 48.0801 183.179 54.5213L140.558 128L183.179 201.479C186.92 207.92 187.28 208.28 195.92 213.152V218H164.399L121.808 144.573L87.6243 144.572V217.999H62V38.0011H87.6243V111.428L121.808 111.427L164.399 38H195.92ZM87.6243 116.935V139.065L118.613 139.065L112.195 128L118.613 116.934L87.6243 116.935Z"/>
</svg>
