<svg width="40" height="40" viewBox="0 0 40 40" fill="none" xmlns="http://www.w3.org/2000/svg">
  <path d="M 40.0000 20.0000 L 39.9753 27.2258 L 39.9011 29.5228 L 39.7771 31.1765 L 39.6025 32.5033 L 39.3765 33.6196 L 39.0978 34.5831 L 38.7645 35.4264 L 38.3744 36.1703 L 37.9245 36.8286 L 37.4110 37.4110 L 36.8286 37.9245 L 36.1703 38.3744 L 35.4264 38.7645 L 34.5831 39.0978 L 33.6196 39.3765 L 32.5033 39.6025 L 31.1765 39.7771 L 29.5228 39.9011 L 27.2258 39.9753 L 20.0000 40.0000 L 12.7742 39.9753 L 10.4772 39.9011 L 8.8235 39.7771 L 7.4967 39.6025 L 6.3804 39.3765 L 5.4169 39.0978 L 4.5736 38.7645 L 3.8297 38.3744 L 3.1714 37.9245 L 2.5890 37.4110 L 2.0755 36.8286 L 1.6256 36.1703 L 1.2355 35.4264 L 0.9022 34.5831 L 0.6235 33.6196 L 0.3975 32.5033 L 0.2229 31.1765 L 0.0989 29.5228 L 0.0247 27.2258 L 0.0000 20.0000 L 0.0247 12.7742 L 0.0989 10.4772 L 0.2229 8.8235 L 0.3975 7.4967 L 0.6235 6.3804 L 0.9022 5.4169 L 1.2355 4.5736 L 1.6256 3.8297 L 2.0755 3.1714 L 2.5890 2.5890 L 3.1714 2.0755 L 3.8297 1.6256 L 4.5736 1.2355 L 5.4169 0.9022 L 6.3804 0.6235 L 7.4967 0.3975 L 8.8235 0.2229 L 10.4772 0.0989 L 12.7742 0.0247 L 20.0000 0.0000 L 27.2258 0.0247 L 29.5228 0.0989 L 31.1765 0.2229 L 32.5033 0.3975 L 33.6196 0.6235 L 34.5831 0.9022 L 35.4264 1.2355 L 36.1703 1.6256 L 36.8286 2.0755 L 37.4110 2.5890 L 37.9245 3.1714 L 38.3744 3.8297 L 38.7645 4.5736 L 39.0978 5.4169 L 39.3765 6.3804 L 39.6025 7.4967 L 39.7771 8.8235 L 39.9011 10.4772 L 39.9753 12.7742 L 40.0000 20.0000 Z" fill="currentColor"/>
</svg>
