<svg width="1024" height="1024" viewBox="0 0 1024 1024" fill="none" xmlns="http://www.w3.org/2000/svg">
  <defs>
    <path id="logo-bg" d="M 1024.0000 512.0000 L 1023.3681 697.6452 L 1021.4880 757.4631 L 1018.3825 800.7731 L 1014.0865 835.3935 L 1008.6405 864.6628 L 1002.0904 889.3325 L 994.4861 910.9732 L 985.8799 930.0069 L 976.3256 946.7643 L 965.8783 961.5230 L 954.5930 974.5230 L 942.5249 985.9728 L 929.7292 996.0521 L 916.2609 1004.9188 L 902.1748 1012.7110 L 887.5257 1019.5483 L 872.3683 1025.5331 L 856.7574 1030.7525 L 840.7477 1035.2790 L 824.3942 1039.1722 L 807.7514 1042.4802 L 790.8742 1045.2407 L 773.8169 1047.4958 L 756.6344 1049.2817 L 739.3813 1050.6294 L 722.1125 1051.5650 L 704.8827 1052.1102 L 687.7468 1052.2820 L 512.0000 1052.0000 L 336.2532 1052.2820 L 319.1173 1052.1102 L 301.8875 1051.5650 L 284.6187 1050.6294 L 267.3656 1049.2817 L 250.1831 1047.4958 L 233.1258 1045.2407 L 216.2486 1042.4802 L 199.6058 1039.1722 L 183.2523 1035.2790 L 167.2426 1030.7525 L 151.6317 1025.5331 L 136.4743 1019.5483 L 121.8252 1012.7110 L 107.7391 1004.9188 L 94.2708 996.0521 L 81.4751 985.9728 L 69.4070 974.5230 L 58.1220 961.5230 L 47.6744 946.7643 L 38.1201 930.0069 L 29.5139 910.9732 L 21.9096 889.3325 L 15.3595 864.6628 L 9.9135 835.3935 L 5.6175 800.7731 L 2.5120 757.4631 L 0.6319 697.6452 L 0.0000 512.0000 L 0.6319 326.3548 L 2.5120 266.5369 L 5.6175 223.2269 L 9.9135 188.6065 L 15.3595 159.3372 L 21.9096 134.6675 L 29.5139 113.0268 L 38.1201 92.9931 L 47.6744 76.2357 L 58.1220 61.4770 L 69.4070 48.4770 L 81.4751 37.0272 L 94.2708 26.9479 L 107.7391 18.0812 L 121.8252 10.2890 L 136.4743 3.4517 L 151.6317 -2.5331 L 167.2426 -7.7525 L 183.2523 -12.2790 L 199.6058 -16.1722 L 216.2486 -19.4802 L 233.1258 -22.2407 L 250.1831 -24.4958 L 267.3656 -26.2817 L 284.6187 -27.6294 L 301.8875 -28.5650 L 319.1173 -29.1102 L 336.2532 -29.2820 L 512.0000 -29.9999 L 687.7468 -29.2820 L 704.8827 -29.1102 L 722.1125 -28.5650 L 739.3813 -27.6294 L 756.6344 -26.2817 L 773.8169 -24.4958 L 790.8742 -22.2407 L 807.7514 -19.4802 L 824.3942 -16.1722 L 840.7477 -12.2790 L 856.7574 -7.7525 L 872.3683 -2.5331 L 887.5257 3.4517 L 902.1748 10.2890 L 916.2609 18.0812 L 929.7292 26.9479 L 942.5249 37.0272 L 954.5930 48.4770 L 965.8783 61.4770 L 976.3256 76.2357 L 985.8799 92.9931 L 994.4861 113.0268 L 1002.0904 134.6675 L 1008.6405 159.3372 L 1014.0865 188.6065 L 1018.3825 223.2269 L 1021.4880 266.5369 L 1023.3681 326.3548 L 1024.0000 512.0000 Z" />
    <path id="logo-k" d="M195.92 38V42.8477C187.28 47.72 186.92 48.0801 183.179 54.5213L140.558 128L183.179 201.479C186.92 207.92 187.28 208.28 195.92 213.152V218H164.399L121.808 144.573L87.6243 144.572V217.999H62V38.0011H87.6243V111.428L121.808 111.427L164.399 38H195.92ZM87.6243 116.935V139.065L118.613 139.065L112.195 128L118.613 116.934L87.6243 116.935Z" />
  </defs>

  <!-- Light mode default: dark bg, light K -->
  <g id="logo-light-default">
    <use href="#logo-bg" fill="#232323" />
    <g transform="translate(256,256) scale(4)">
      <use href="#logo-k" fill="#DADADA" />
    </g>
  </g>

  <!-- Light mode hover: black bg, white K -->
  <g id="logo-light-hover">
    <use href="#logo-bg" fill="#000000" />
    <g transform="translate(256,256) scale(4)">
      <use href="#logo-k" fill="#FFFFFF" />
    </g>
  </g>

  <!-- Dark mode default: light bg, dark K -->
  <g id="logo-dark-default">
    <use href="#logo-bg" fill="#DCDCDC" />
    <g transform="translate(256,256) scale(4)">
      <use href="#logo-k" fill="#323232" />
    </g>
  </g>

  <!-- Dark mode hover: white bg, black K -->
  <g id="logo-dark-hover">
    <use href="#logo-bg" fill="#FFFFFF" />
    <g transform="translate(256,256) scale(4)">
      <use href="#logo-k" fill="#000000" />
    </g>
  </g>
</svg>
