<svg width="256" height="256" viewBox="0 0 256 256" fill="none" xmlns="http://www.w3.org/2000/svg">
<path d="M88.0742 38.2217V112.136H127.98L170.646 38.2217H197.25C193.736 41.3588 189.972 45.3752 186.333 50.3945C184.451 52.904 182.82 55.4139 181.439 57.7979C170.898 76.1193 162.079 91.2159 149.69 112.638C147.877 115.774 146.866 117.536 145.047 120.669C143.347 123.596 142.174 125.665 140.681 128.155C142.174 130.646 143.347 132.716 145.047 135.643C146.866 138.775 147.877 140.538 149.69 143.674C162.079 165.096 170.898 180.192 181.439 198.514C182.82 200.898 184.451 203.408 186.333 205.917C189.972 210.936 193.736 214.953 197.25 218.09H170.646L127.98 144.176H88.0742V218.09H69V38.2217H88.0742ZM88.0742 117.782V138.529H124.718L118.743 128.199H118.693L118.718 128.155L118.693 128.112H118.743L124.718 117.782H88.0742Z" fill="currentColor"/>
</svg>
